<svg width="100%" height="100%" viewBox="0 0 16 17" fill="none" xmlns="http://www.w3.org/2000/svg">
    <path d="M1 6.73908C1 6.43049 1.14247 6.13919 1.38606 5.94973L7.13606 1.47751C7.49717 1.19665 8.00283 1.19665 8.36394 1.47751L14.1139 5.94973C14.3575 6.13919 14.5 6.43049 14.5 6.73908V14.5C14.5 14.8978 14.342 15.2794 14.0607 15.5607C13.7794 15.842 13.3978 16 13 16H2.5C2.10218 16 1.72064 15.842 1.43934 15.5607C1.15804 15.2794 1 14.8978 1 14.5V6.73908Z" stroke="white" stroke-width="2" stroke-linecap="round" stroke-linejoin="round"/>
    <path d="M5.5 16V9.5C5.5 8.94772 5.94772 8.5 6.5 8.5H9C9.55228 8.5 10 8.94772 10 9.5V16" stroke="white" stroke-width="2" stroke-linecap="round" stroke-linejoin="round"/>
</svg>